<?xml version="1.0" encoding="UTF-8"?>
<svg width="24px" height="20px" viewBox="0 0 24 20" version="1.1" xmlns="http://www.w3.org/2000/svg" xmlns:xlink="http://www.w3.org/1999/xlink">
    <!-- Generator: sketchtool 52.1 (67048) - http://www.bohemiancoding.com/sketch -->
    <title>D196B484-97F8-4A5E-BC34-60787FC6A9A8</title>
    <desc>Created with sketchtool.</desc>
    <g id="0.0-Stylesheet" stroke="none" stroke-width="1" fill="none" fill-rule="evenodd">
        <g id="Stylesheet" transform="translate(-416.000000, -1144.000000)" fill="#888888">
            <path d="M440,1146.36756 C439.116954,1146.76913 438.16798,1147.04054 437.171952,1147.1626 C438.18861,1146.5377 438.969297,1145.54822 439.336947,1144.36925 C438.385603,1144.9478 437.331812,1145.368 436.210249,1145.59449 C435.312016,1144.6132 434.032349,1144 432.616175,1144 C429.896807,1144 427.692132,1146.26062 427.692132,1149.04892 C427.692132,1149.44464 427.735762,1149.83001 427.819686,1150.19953 C423.727422,1149.98898 420.099287,1147.97888 417.670756,1144.92421 C417.246922,1145.66992 417.004104,1146.53724 417.004104,1147.46254 C417.004104,1149.2142 417.873456,1150.75963 419.194645,1151.66503 C418.387447,1151.63883 417.628267,1151.41171 416.964337,1151.03355 C416.963986,1151.05461 416.963986,1151.07577 416.963986,1151.09701 C416.963986,1153.54334 418.661253,1155.58405 420.913772,1156.04782 C420.50056,1156.16322 420.065577,1156.22488 419.61646,1156.22488 C419.299199,1156.22488 418.990717,1156.19329 418.690135,1156.13432 C419.316668,1158.14028 421.135082,1159.60001 423.289718,1159.64079 C421.604565,1160.99493 419.481444,1161.80212 417.174586,1161.80212 C416.777175,1161.80212 416.385208,1161.77827 416,1161.73164 C418.179041,1163.16418 420.767256,1164 423.547899,1164 C432.604675,1164 437.557248,1156.30644 437.557248,1149.6344 C437.557248,1149.41548 437.552507,1149.19772 437.543026,1148.98123 C438.504993,1148.26937 439.339844,1147.38008 440,1146.36756" id="icon-twitter"></path>
        </g>
    </g>
</svg>