<?xml version="1.0" encoding="UTF-8"?>
<svg width="24px" height="24px" viewBox="0 0 24 24" version="1.1" xmlns="http://www.w3.org/2000/svg" xmlns:xlink="http://www.w3.org/1999/xlink">
    <!-- Generator: sketchtool 52.1 (67048) - http://www.bohemiancoding.com/sketch -->
    <title>03EA995F-0DE9-4155-9506-C81F397DF406</title>
    <desc>Created with sketchtool.</desc>
    <g id="0.0-Stylesheet" stroke="none" stroke-width="1" fill="none" fill-rule="evenodd">
        <g id="Stylesheet" transform="translate(-496.000000, -1142.000000)" fill="#888888">
            <path d="M508.000024,1142 C504.740996,1142 504.332343,1142.01381 503.052415,1142.07221 C501.775155,1142.13047 500.902832,1142.33334 500.139544,1142.63001 C499.350438,1142.93663 498.681227,1143.34695 498.014064,1144.01406 C497.346949,1144.68123 496.936629,1145.35044 496.630008,1146.13954 C496.333343,1146.90283 496.13047,1147.77516 496.072213,1149.05242 C496.013814,1150.33234 496,1150.741 496,1154.00002 C496,1157.259 496.013814,1157.66766 496.072213,1158.94758 C496.13047,1160.22484 496.333343,1161.09717 496.630008,1161.86046 C496.936629,1162.64956 497.346949,1163.31877 498.014064,1163.98594 C498.681227,1164.65305 499.350438,1165.06337 500.139544,1165.37004 C500.902832,1165.66666 501.775155,1165.86953 503.052415,1165.92779 C504.332343,1165.98619 504.740996,1166 508.000024,1166 C511.259004,1166 511.667657,1165.98619 512.947585,1165.92779 C514.224845,1165.86953 515.097168,1165.66666 515.860456,1165.37004 C516.649562,1165.06337 517.318773,1164.65305 517.985936,1163.98594 C518.653051,1163.31877 519.063371,1162.64956 519.370039,1161.86046 C519.666657,1161.09717 519.86953,1160.22484 519.927787,1158.94758 C519.986186,1157.66766 520,1157.259 520,1154.00002 C520,1150.741 519.986186,1150.33234 519.927787,1149.05242 C519.86953,1147.77516 519.666657,1146.90283 519.370039,1146.13954 C519.063371,1145.35044 518.653051,1144.68123 517.985936,1144.01406 C517.318773,1143.34695 516.649562,1142.93663 515.860456,1142.63001 C515.097168,1142.33334 514.224845,1142.13047 512.947585,1142.07221 C511.667657,1142.01381 511.259004,1142 508.000024,1142 Z M508.000024,1144.16216 C511.20413,1144.16216 511.583678,1144.1744 512.84903,1144.23213 C514.019018,1144.28548 514.654409,1144.48097 515.077257,1144.64531 C515.637386,1144.863 516.037131,1145.12303 516.457025,1145.54297 C516.876967,1145.96287 517.137002,1146.36261 517.354689,1146.92274 C517.519027,1147.34559 517.714517,1147.98098 517.767867,1149.15097 C517.8256,1150.41632 517.837842,1150.79587 517.837842,1154.00002 C517.837842,1157.20413 517.8256,1157.58368 517.767867,1158.84903 C517.714517,1160.01902 517.519027,1160.65441 517.354689,1161.07726 C517.137002,1161.63739 516.876967,1162.03713 516.457025,1162.45703 C516.037131,1162.87697 515.637386,1163.137 515.077257,1163.35469 C514.654409,1163.51903 514.019018,1163.71452 512.84903,1163.76787 C511.583869,1163.8256 511.204368,1163.83784 508.000024,1163.83784 C504.795632,1163.83784 504.416179,1163.8256 503.15097,1163.76787 C501.980982,1163.71452 501.345591,1163.51903 500.922743,1163.35469 C500.362614,1163.137 499.962869,1162.87697 499.542975,1162.45703 C499.12308,1162.03713 498.862998,1161.63739 498.645311,1161.07726 C498.480973,1160.65441 498.285483,1160.01902 498.232133,1158.84903 C498.1744,1157.58368 498.162158,1157.20413 498.162158,1154.00002 C498.162158,1150.79587 498.1744,1150.41632 498.232133,1149.15097 C498.285483,1147.98098 498.480973,1147.34559 498.645311,1146.92274 C498.862998,1146.36261 499.123033,1145.96287 499.542975,1145.54297 C499.962869,1145.12303 500.362614,1144.863 500.922743,1144.64531 C501.345591,1144.48097 501.980982,1144.28548 503.15097,1144.23213 C504.416322,1144.1744 504.79587,1144.16216 508.000024,1144.16216 Z M508.000024,1147.83784 C504.596712,1147.83784 501.837842,1150.59671 501.837842,1154.00002 C501.837842,1157.40329 504.596712,1160.16216 508.000024,1160.16216 C511.403288,1160.16216 514.162158,1157.40329 514.162158,1154.00002 C514.162158,1150.59671 511.403288,1147.83784 508.000024,1147.83784 Z M508.000024,1158 C505.790851,1158 504,1156.20915 504,1154.00002 C504,1151.79085 505.790851,1150 508.000024,1150 C510.209149,1150 512,1151.79085 512,1154.00002 C512,1156.20915 510.209149,1158 508.000024,1158 Z M515.845642,1147.59438 C515.845642,1146.79909 515.200915,1146.15436 514.405616,1146.15436 C513.610365,1146.15436 512.965638,1146.79909 512.965638,1147.59438 C512.965638,1148.38968 513.610365,1149.03436 514.405616,1149.03436 C515.200915,1149.03436 515.845642,1148.38968 515.845642,1147.59438 Z" id="icon-instagram"></path>
        </g>
    </g>
</svg>