<?xml version="1.0" encoding="UTF-8"?>
<svg width="24px" height="24px" viewBox="0 0 24 24" version="1.1" xmlns="http://www.w3.org/2000/svg" xmlns:xlink="http://www.w3.org/1999/xlink">
    <!-- Generator: sketchtool 52.1 (67048) - http://www.bohemiancoding.com/sketch -->
    <title>C82C133A-11BE-48BB-865B-5D80C7CC9063</title>
    <desc>Created with sketchtool.</desc>
    <g id="0.0-Stylesheet" stroke="none" stroke-width="1" fill="none" fill-rule="evenodd">
        <g id="Stylesheet" transform="translate(-376.000000, -1142.000000)" fill="#888888">
            <path d="M398.671875,1142 C399.03646,1142 399.348957,1142.13021 399.609375,1142.39062 C399.869793,1142.65104 400,1142.96354 400,1143.32812 L400,1164.67188 C400,1165.03646 399.869793,1165.34896 399.609375,1165.60938 C399.348957,1165.86979 399.03646,1166 398.671875,1166 L392.5625,1166 L392.5625,1156.70312 L395.671875,1156.70312 L396.140625,1153.07812 L392.5625,1153.07812 L392.5625,1150.76562 C392.5625,1150.18229 392.684895,1149.74479 392.929688,1149.45312 C393.17448,1149.16146 393.651038,1149.01562 394.359375,1149.01562 L396.265625,1149 L396.265625,1145.76562 C395.609372,1145.67187 394.682298,1145.625 393.484375,1145.625 C392.067701,1145.625 390.9349,1146.04166 390.085938,1146.875 C389.236975,1147.70834 388.8125,1148.88541 388.8125,1150.40625 L388.8125,1153.07812 L385.6875,1153.07812 L385.6875,1156.70312 L388.8125,1156.70312 L388.8125,1166 L377.328125,1166 C376.96354,1166 376.651043,1165.86979 376.390625,1165.60938 C376.130207,1165.34896 376,1165.03646 376,1164.67188 L376,1143.32812 C376,1142.96354 376.130207,1142.65104 376.390625,1142.39062 C376.651043,1142.13021 376.96354,1142 377.328125,1142 L398.671875,1142 Z" id="icon-facebook"></path>
        </g>
    </g>
</svg>